<svg width="36" height="36" viewBox="0 0 36 36" fill="none" xmlns="http://www.w3.org/2000/svg">
<g clip-path="url(#clip0_62_52)">
<path d="M22.482 19.089C22.719 21.759 20.622 24 18 24H12.033C10.9965 24 10.2615 23.001 10.5705 22.0125C11.3235 19.599 13.4745 15.765 16.9305 15.1005C19.563 14.5935 22.245 16.419 22.482 19.089ZM34.5 13.5C33.6705 13.5 33 14.1705 33 15V22.5C33 24.981 30.981 27 28.5 27H7.5C5.019 27 3 24.981 3 22.5V10.5C3 8.01898 5.019 5.99998 7.5 5.99998H19.5C20.3295 5.99998 21 5.32948 21 4.49998C21 3.67048 20.3295 2.99998 19.5 2.99998H7.5C3.3645 2.99998 0 6.36448 0 10.5V22.5C0 26.6355 3.3645 30 7.5 30H16.5V33H12C11.172 33 10.5 33.6705 10.5 34.5C10.5 35.3295 11.172 36 12 36H24C24.8295 36 25.5 35.3295 25.5 34.5C25.5 33.6705 24.8295 33 24 33H19.5V30H28.5C32.6355 30 36 26.6355 36 22.5V15C36 14.1705 35.3295 13.5 34.5 13.5ZM20.379 13.0275C20.3895 13.032 20.4015 13.0365 20.412 13.0425C20.988 13.2945 21.657 13.131 22.0755 12.6615L30.537 3.46648C31.059 2.88298 31.956 2.83348 32.538 3.35548C32.5575 3.37348 32.5755 3.38998 32.595 3.40948C33.1485 3.96148 33.1485 4.85698 32.5965 5.41048C32.5965 5.41048 32.5965 5.41048 32.595 5.41198L23.829 13.941C23.3325 14.4375 23.262 15.207 23.6445 15.7965C23.6505 15.8055 23.6565 15.8145 23.661 15.822C24.1695 16.6155 25.278 16.731 25.944 16.065L34.71 7.53748C36.432 5.81248 36.432 3.01798 34.71 1.29298C32.9865 -0.432021 30.192 -0.433521 28.467 1.28998C28.4085 1.34848 19.8255 10.674 19.8255 10.674C19.143 11.4405 19.437 12.621 20.379 13.0275Z" fill="#22BFB7"/>
</g>
<defs>
<clipPath id="clip0_62_52">
<rect width="36" height="36" fill="white"/>
</clipPath>
</defs>
</svg>
