<svg width="36" height="36" viewBox="0 0 36 36" fill="none" xmlns="http://www.w3.org/2000/svg">
<path d="M18 9.38858C16.2959 9.38858 14.6301 9.89391 13.2132 10.8407C11.7963 11.7874 10.6919 13.133 10.0398 14.7074C9.38765 16.2818 9.21702 18.0142 9.54948 19.6856C9.88193 21.3569 10.7025 22.8922 11.9075 24.0971C13.1125 25.3021 14.6477 26.1227 16.3191 26.4552C17.9904 26.7876 19.7228 26.617 21.2972 25.9649C22.8716 25.3127 24.2173 24.2084 25.164 22.7915C26.1108 21.3746 26.6161 19.7088 26.6161 18.0047C26.6134 15.7203 25.7048 13.5303 24.0896 11.9151C22.4743 10.2998 20.2843 9.39121 18 9.38858ZM18 22.6441C17.0824 22.6441 16.1854 22.372 15.4225 21.8622C14.6595 21.3524 14.0649 20.6278 13.7137 19.7801C13.3626 18.9323 13.2707 17.9995 13.4497 17.0996C13.6287 16.1996 14.0706 15.3729 14.7194 14.7241C15.3683 14.0753 16.1949 13.6334 17.0949 13.4544C17.9949 13.2754 18.9277 13.3672 19.7754 13.7184C20.6232 14.0695 21.3478 14.6642 21.8575 15.4271C22.3673 16.1901 22.6394 17.0871 22.6394 18.0047C22.6394 19.2351 22.1506 20.4152 21.2806 21.2852C20.4105 22.1553 19.2305 22.6441 18 22.6441ZM33.2438 18.1356V17.8738L35.5635 14.9725C35.7583 14.7294 35.8932 14.4439 35.9573 14.1391C36.0215 13.8343 36.0132 13.5187 35.933 13.2178C35.5144 11.6389 34.8888 10.1223 34.0723 8.70758C33.915 8.4378 33.6964 8.20886 33.4341 8.0393C33.1719 7.86975 32.8734 7.76435 32.5628 7.73164L28.8712 7.31741L28.6873 7.13349L28.273 3.44017C28.2401 3.1299 28.1345 2.83173 27.965 2.56979C27.7955 2.30785 27.5667 2.08949 27.2971 1.93236C25.8822 1.11332 24.3651 0.485395 22.7852 0.0649917C22.484 -0.0139804 22.1684 -0.0210873 21.8639 0.0442437C21.5594 0.109575 21.2745 0.245517 21.0322 0.441117L18.1309 2.76083H17.8691L14.9678 0.441117C14.7247 0.246396 14.4393 0.111509 14.1345 0.0473285C13.8297 -0.0168521 13.5141 -0.00853139 13.2131 0.0716196C11.6338 0.492832 10.1172 1.1213 8.70292 1.94065C8.43419 2.09712 8.2059 2.31445 8.03641 2.57517C7.86692 2.83588 7.76093 3.13272 7.72698 3.44183L7.31275 7.13349L7.12883 7.31741L3.43552 7.73164C3.12524 7.7646 2.82707 7.87011 2.56513 8.03966C2.30319 8.2092 2.08483 8.43801 1.9277 8.70758C1.11096 10.1228 0.485271 11.6399 0.0669606 13.2194C-0.0129168 13.5202 -0.0210969 13.8354 0.0430784 14.1399C0.107254 14.4444 0.241993 14.7296 0.436458 14.9725L2.75617 17.8738V18.1356L0.436458 21.0369C0.241737 21.28 0.10685 21.5654 0.0426695 21.8702C-0.0215111 22.175 -0.0131904 22.4906 0.0669606 22.7916C0.488696 24.3709 1.11772 25.8875 1.93764 27.3017C2.09396 27.5703 2.31102 27.7984 2.57144 27.9679C2.83185 28.1374 3.12835 28.2435 3.43717 28.2777L7.12883 28.6886L7.31275 28.8725L7.72698 32.5691C7.75994 32.8794 7.86546 33.1776 8.035 33.4395C8.20454 33.7015 8.43335 33.9198 8.70292 34.077C10.1178 34.896 11.6349 35.5239 13.2148 35.9443C13.516 36.0233 13.8316 36.0304 14.1361 35.9651C14.4406 35.8997 14.7255 35.7638 14.9678 35.5682L17.8691 33.2485H18.1309L21.0322 35.5682C21.2753 35.7629 21.5607 35.8978 21.8655 35.962C22.1703 36.0262 22.4859 36.0178 22.7869 35.9377C24.3658 35.5191 25.8823 34.8934 27.2971 34.077C27.5664 33.9209 27.7954 33.7037 27.9654 33.443C28.1355 33.1822 28.242 32.8852 28.2763 32.5758L28.6873 28.8841L28.8712 28.7002L32.5645 28.2777C32.8739 28.2434 33.1709 28.1369 33.4317 27.9668C33.6924 27.7967 33.9096 27.5678 34.0657 27.2984C34.8847 25.8836 35.5126 24.3664 35.933 22.7866C36.0124 22.4863 36.0203 22.1717 35.9561 21.8678C35.8919 21.564 35.7575 21.2794 35.5635 21.0369L33.2438 18.1356ZM29.2473 17.3253C29.2738 17.7778 29.2738 18.2315 29.2473 18.684C29.2177 19.1759 29.3718 19.6613 29.6798 20.046L31.8073 22.7054C31.6064 23.2999 31.3668 23.8805 31.0898 24.4435L27.7047 24.8196C27.2146 24.8757 26.7628 25.1119 26.4371 25.4824C26.1361 25.8215 25.8152 26.1424 25.4761 26.4434C25.1056 26.7691 24.8694 27.2209 24.8133 27.711L24.4389 31.0945C23.8759 31.3726 23.2953 31.6133 22.7007 31.8152L20.0413 29.6861C19.6884 29.4045 19.2502 29.2514 18.7986 29.252H18.6793C18.2268 29.2785 17.7732 29.2785 17.3207 29.252C16.8291 29.2228 16.3441 29.3762 15.9587 29.6828L13.2993 31.8119C12.7048 31.6111 12.1242 31.3714 11.5611 31.0945L11.185 27.7093C11.129 27.2192 10.8928 26.7675 10.5222 26.4418C10.1831 26.1408 9.86222 25.8199 9.56121 25.4808C9.23554 25.1102 8.78376 24.874 8.29366 24.818L4.91019 24.4435C4.63211 23.8806 4.39133 23.2999 4.18942 22.7054L6.31693 20.046C6.62489 19.6613 6.779 19.1759 6.74939 18.684C6.72288 18.2315 6.72288 17.7778 6.74939 17.3253C6.779 16.8334 6.62489 16.348 6.31693 15.9633L4.19274 13.3039C4.39357 12.7095 4.63324 12.1288 4.91019 11.5658L8.29531 11.1897C8.78542 11.1336 9.2372 10.8974 9.56287 10.5269C9.86387 10.1878 10.1848 9.86687 10.5239 9.56587C10.8944 9.2402 11.1306 8.78842 11.1867 8.29832L11.5611 4.91485C12.1241 4.63677 12.7047 4.39599 13.2993 4.19408L15.9587 6.32325C16.3441 6.62976 16.8291 6.78317 17.3207 6.75405C17.7732 6.72754 18.2268 6.72754 18.6793 6.75405C19.171 6.78413 19.6564 6.63061 20.0413 6.32325L22.7007 4.19408C23.2953 4.39599 23.8759 4.63677 24.4389 4.91485L24.815 8.29997C24.871 8.79008 25.1072 9.24186 25.4778 9.56753C25.8169 9.86853 26.1378 10.1894 26.4388 10.5286C26.7645 10.8991 27.2162 11.1353 27.7063 11.1913L31.0898 11.5658C31.3679 12.1288 31.6087 12.7094 31.8106 13.3039L29.6831 15.9633C29.3739 16.3476 29.2186 16.833 29.2473 17.3253Z" fill="#22BFB7"/>
</svg>
