<svg width="35" height="36" viewBox="0 0 35 36" fill="none" xmlns="http://www.w3.org/2000/svg">
<path d="M25.2 3.6C24.7226 3.6 24.2648 3.41036 23.9272 3.07279C23.5896 2.73523 23.4 2.27739 23.4 1.8C23.4 1.32261 23.5896 0.864773 23.9272 0.527208C24.2648 0.189642 24.7226 0 25.2 0H32.4C32.8774 0 33.3352 0.189642 33.6728 0.527208C34.0104 0.864773 34.2 1.32261 34.2 1.8V9C34.2 9.47739 34.0104 9.93523 33.6728 10.2728C33.3352 10.6104 32.8774 10.8 32.4 10.8C31.9226 10.8 31.4648 10.6104 31.1272 10.2728C30.7896 9.93523 30.6 9.47739 30.6 9V6.1452L20.1726 16.5726C19.8351 16.91 19.3773 17.0996 18.9 17.0996C18.4227 17.0996 17.965 16.91 17.6274 16.5726L12.6 11.5452L3.0726 21.0726C2.73312 21.4005 2.27843 21.5819 1.80648 21.5778C1.33452 21.5737 0.883061 21.3844 0.549327 21.0507C0.215592 20.7169 0.026288 20.2655 0.0221868 19.7935C0.0180856 19.3216 0.199515 18.8669 0.5274 18.5274L11.3274 7.7274C11.665 7.38995 12.1227 7.20038 12.6 7.20038C13.0773 7.20038 13.5351 7.38995 13.8726 7.7274L18.9 12.7548L28.0548 3.6H25.2ZM3.6 28.8V34.2C3.6 34.6774 3.41036 35.1352 3.07279 35.4728C2.73523 35.8104 2.27739 36 1.8 36C1.32261 36 0.864773 35.8104 0.527208 35.4728C0.189642 35.1352 0 34.6774 0 34.2V28.8C0 28.3226 0.189642 27.8648 0.527208 27.5272C0.864773 27.1896 1.32261 27 1.8 27C2.27739 27 2.73523 27.1896 3.07279 27.5272C3.41036 27.8648 3.6 28.3226 3.6 28.8ZM12.6 21.6C12.6 21.1226 12.4104 20.6648 12.0728 20.3272C11.7352 19.9896 11.2774 19.8 10.8 19.8C10.3226 19.8 9.86477 19.9896 9.52721 20.3272C9.18964 20.6648 9 21.1226 9 21.6V34.2C9 34.6774 9.18964 35.1352 9.52721 35.4728C9.86477 35.8104 10.3226 36 10.8 36C11.2774 36 11.7352 35.8104 12.0728 35.4728C12.4104 35.1352 12.6 34.6774 12.6 34.2V21.6ZM19.8 23.4C20.2774 23.4 20.7352 23.5896 21.0728 23.9272C21.4104 24.2648 21.6 24.7226 21.6 25.2V34.2C21.6 34.6774 21.4104 35.1352 21.0728 35.4728C20.7352 35.8104 20.2774 36 19.8 36C19.3226 36 18.8648 35.8104 18.5272 35.4728C18.1896 35.1352 18 34.6774 18 34.2V25.2C18 24.7226 18.1896 24.2648 18.5272 23.9272C18.8648 23.5896 19.3226 23.4 19.8 23.4ZM30.6 16.2C30.6 15.7226 30.4104 15.2648 30.0728 14.9272C29.7352 14.5896 29.2774 14.4 28.8 14.4C28.3226 14.4 27.8648 14.5896 27.5272 14.9272C27.1896 15.2648 27 15.7226 27 16.2V34.2C27 34.6774 27.1896 35.1352 27.5272 35.4728C27.8648 35.8104 28.3226 36 28.8 36C29.2774 36 29.7352 35.8104 30.0728 35.4728C30.4104 35.1352 30.6 34.6774 30.6 34.2V16.2Z" fill="#22BFB7"/>
</svg>
