<svg width="157" height="38" viewBox="0 0 157 38" fill="none" xmlns="http://www.w3.org/2000/svg">
<path d="M7.476 32.804C7.476 33.228 7.368 33.608 7.152 33.944C6.936 34.272 6.644 34.532 6.276 34.724C5.916 34.908 5.52 35 5.088 35H1.068V26.48H5.172C5.572 26.48 5.916 26.588 6.204 26.804C6.5 27.012 6.724 27.284 6.876 27.62C7.036 27.948 7.116 28.292 7.116 28.652C7.116 29.076 7.008 29.468 6.792 29.828C6.576 30.188 6.276 30.456 5.892 30.632C6.38 30.776 6.764 31.044 7.044 31.436C7.332 31.828 7.476 32.284 7.476 32.804ZM6.636 32.66C6.636 32.372 6.572 32.108 6.444 31.868C6.316 31.62 6.14 31.42 5.916 31.268C5.7 31.116 5.452 31.04 5.172 31.04H1.908V34.268H5.088C5.376 34.268 5.636 34.192 5.868 34.04C6.1 33.888 6.284 33.692 6.42 33.452C6.564 33.204 6.636 32.94 6.636 32.66ZM1.908 27.212V30.356H4.836C5.116 30.356 5.364 30.284 5.58 30.14C5.796 29.988 5.968 29.792 6.096 29.552C6.224 29.312 6.288 29.056 6.288 28.784C6.288 28.496 6.228 28.236 6.108 28.004C5.988 27.764 5.824 27.572 5.616 27.428C5.408 27.284 5.172 27.212 4.908 27.212H1.908ZM15.4322 35.12C14.9842 35.12 14.5682 35.036 14.1842 34.868C13.8002 34.692 13.4682 34.456 13.1882 34.16C12.9082 33.856 12.6882 33.508 12.5282 33.116C12.3762 32.724 12.3002 32.304 12.3002 31.856C12.3002 31.272 12.4322 30.736 12.6962 30.248C12.9682 29.76 13.3402 29.372 13.8122 29.084C14.2842 28.788 14.8202 28.64 15.4202 28.64C16.0362 28.64 16.5722 28.788 17.0282 29.084C17.4922 29.38 17.8562 29.772 18.1202 30.26C18.3842 30.74 18.5162 31.268 18.5162 31.844C18.5162 31.908 18.5162 31.972 18.5162 32.036C18.5162 32.092 18.5122 32.136 18.5042 32.168H13.1522C13.1922 32.616 13.3162 33.016 13.5242 33.368C13.7402 33.712 14.0162 33.988 14.3522 34.196C14.6962 34.396 15.0682 34.496 15.4682 34.496C15.8762 34.496 16.2602 34.392 16.6202 34.184C16.9882 33.976 17.2442 33.704 17.3882 33.368L18.0962 33.56C17.9682 33.856 17.7722 34.124 17.5082 34.364C17.2442 34.604 16.9322 34.792 16.5722 34.928C16.2202 35.056 15.8402 35.12 15.4322 35.12ZM13.1282 31.58H17.7482C17.7162 31.124 17.5922 30.724 17.3762 30.38C17.1682 30.036 16.8922 29.768 16.5482 29.576C16.2122 29.376 15.8402 29.276 15.4322 29.276C15.0242 29.276 14.6522 29.376 14.3162 29.576C13.9802 29.768 13.7042 30.04 13.4882 30.392C13.2802 30.736 13.1602 31.132 13.1282 31.58ZM26.4832 35.12C25.4752 35.12 24.7112 34.812 24.1912 34.196C23.6792 33.572 23.4232 32.712 23.4232 31.616C23.4232 30.84 23.4872 30.184 23.6152 29.648C23.7432 29.112 23.9312 28.672 24.1792 28.328C24.4272 27.976 24.7312 27.688 25.0912 27.464C25.4592 27.24 25.8792 27.056 26.3512 26.912L28.9792 26.048L29.0512 26.756L26.5192 27.584C26.0392 27.744 25.6392 27.948 25.3192 28.196C24.9992 28.444 24.7472 28.76 24.5632 29.144C24.3872 29.52 24.2712 30.012 24.2152 30.62C24.4232 30.156 24.7432 29.8 25.1752 29.552C25.6072 29.296 26.1072 29.168 26.6752 29.168C27.2832 29.168 27.7992 29.292 28.2232 29.54C28.6552 29.788 28.9832 30.132 29.2072 30.572C29.4312 31.012 29.5432 31.52 29.5432 32.096C29.5432 32.704 29.4232 33.236 29.1832 33.692C28.9512 34.14 28.6072 34.492 28.1512 34.748C27.7032 34.996 27.1472 35.12 26.4832 35.12ZM26.4832 34.4C27.1952 34.4 27.7432 34.196 28.1272 33.788C28.5192 33.372 28.7152 32.82 28.7152 32.132C28.7152 31.46 28.5232 30.912 28.1392 30.488C27.7632 30.064 27.2112 29.852 26.4832 29.852C26.0672 29.852 25.6912 29.94 25.3552 30.116C25.0192 30.292 24.7512 30.548 24.5512 30.884C24.3592 31.22 24.2632 31.636 24.2632 32.132C24.2632 32.564 24.3472 32.952 24.5152 33.296C24.6912 33.64 24.9432 33.912 25.2712 34.112C25.5992 34.304 26.0032 34.4 26.4832 34.4ZM41.8225 35V26.48H45.3505C45.7185 26.48 46.0545 26.556 46.3585 26.708C46.6705 26.86 46.9385 27.068 47.1625 27.332C47.3865 27.588 47.5625 27.876 47.6905 28.196C47.8185 28.508 47.8825 28.828 47.8825 29.156C47.8825 29.62 47.7785 30.06 47.5705 30.476C47.3705 30.884 47.0865 31.216 46.7185 31.472C46.3505 31.728 45.9185 31.856 45.4225 31.856H42.6625V35H41.8225ZM42.6625 31.112H45.3865C45.7225 31.112 46.0145 31.02 46.2625 30.836C46.5105 30.652 46.7025 30.412 46.8385 30.116C46.9745 29.82 47.0425 29.5 47.0425 29.156C47.0425 28.804 46.9625 28.48 46.8025 28.184C46.6425 27.888 46.4305 27.656 46.1665 27.488C45.9105 27.312 45.6265 27.224 45.3145 27.224H42.6625V31.112ZM52.3851 33.2C52.3851 32.808 52.4971 32.472 52.7211 32.192C52.9451 31.904 53.2531 31.684 53.6451 31.532C54.0451 31.372 54.5051 31.292 55.0251 31.292C55.3291 31.292 55.6451 31.316 55.9731 31.364C56.3011 31.412 56.5931 31.484 56.8491 31.58V31.052C56.8491 30.524 56.6931 30.104 56.3811 29.792C56.0691 29.48 55.6371 29.324 55.0851 29.324C54.7491 29.324 54.4171 29.388 54.0891 29.516C53.7691 29.636 53.4331 29.816 53.0811 30.056L52.7691 29.48C53.1771 29.2 53.5771 28.992 53.9691 28.856C54.3611 28.712 54.7611 28.64 55.1691 28.64C55.9371 28.64 56.5451 28.86 56.9931 29.3C57.4411 29.74 57.6651 30.348 57.6651 31.124V34.016C57.6651 34.128 57.6891 34.212 57.7371 34.268C57.7851 34.316 57.8611 34.344 57.9651 34.352V35C57.8771 35.008 57.8011 35.016 57.7371 35.024C57.6731 35.032 57.6251 35.032 57.5931 35.024C57.3931 35.016 57.2411 34.952 57.1371 34.832C57.0331 34.712 56.9771 34.584 56.9691 34.448L56.9571 33.992C56.6771 34.352 56.3131 34.632 55.8651 34.832C55.4171 35.024 54.9611 35.12 54.4971 35.12C54.0971 35.12 53.7331 35.036 53.4051 34.868C53.0851 34.692 52.8331 34.46 52.6491 34.172C52.4731 33.876 52.3851 33.552 52.3851 33.2ZM56.5731 33.68C56.6611 33.568 56.7291 33.46 56.7771 33.356C56.8251 33.252 56.8491 33.16 56.8491 33.08V32.168C56.5771 32.064 56.2931 31.984 55.9971 31.928C55.7091 31.872 55.4171 31.844 55.1211 31.844C54.5371 31.844 54.0651 31.96 53.7051 32.192C53.3451 32.424 53.1651 32.74 53.1651 33.14C53.1651 33.372 53.2251 33.592 53.3451 33.8C53.4651 34 53.6411 34.168 53.8731 34.304C54.1051 34.432 54.3771 34.496 54.6891 34.496C55.0811 34.496 55.4451 34.42 55.7811 34.268C56.1251 34.116 56.3891 33.92 56.5731 33.68ZM65.0801 35.072C64.5041 35.072 64.0121 34.964 63.6041 34.748C63.1961 34.524 62.8841 34.212 62.6681 33.812L63.3401 33.512C63.4921 33.792 63.7121 34.012 64.0001 34.172C64.2881 34.324 64.6361 34.4 65.0441 34.4C65.5321 34.4 65.9201 34.288 66.2081 34.064C66.5041 33.84 66.6521 33.54 66.6521 33.164C66.6521 32.82 66.5361 32.544 66.3041 32.336C66.0721 32.128 65.7521 32.02 65.3441 32.012H64.7081V31.448H65.3921C65.5681 31.448 65.7281 31.4 65.8721 31.304C66.0161 31.208 66.1281 31.08 66.2081 30.92C66.2881 30.76 66.3281 30.58 66.3281 30.38C66.3281 30.068 66.2161 29.816 65.9921 29.624C65.7761 29.432 65.4561 29.336 65.0321 29.336C64.6801 29.336 64.3841 29.408 64.1441 29.552C63.9121 29.688 63.7241 29.892 63.5801 30.164L62.9561 29.828C63.1401 29.46 63.4121 29.172 63.7721 28.964C64.1401 28.756 64.5681 28.652 65.0561 28.652C65.4561 28.652 65.8041 28.72 66.1001 28.856C66.4041 28.984 66.6401 29.172 66.8081 29.42C66.9841 29.66 67.0721 29.952 67.0721 30.296C67.0721 30.592 67.0001 30.868 66.8561 31.124C66.7121 31.372 66.5121 31.56 66.2561 31.688C66.6241 31.8 66.9081 31.996 67.1081 32.276C67.3161 32.556 67.4201 32.884 67.4201 33.26C67.4201 33.636 67.3201 33.96 67.1201 34.232C66.9201 34.504 66.6441 34.712 66.2921 34.856C65.9401 35 65.5361 35.072 65.0801 35.072ZM75.8197 35.12C75.2997 35.12 74.8317 34.984 74.4157 34.712C74.0077 34.44 73.6837 34.104 73.4437 33.704V37.556H72.6277V28.748H73.3597V29.96C73.6077 29.568 73.9397 29.252 74.3557 29.012C74.7717 28.764 75.2157 28.64 75.6877 28.64C76.1197 28.64 76.5157 28.732 76.8757 28.916C77.2357 29.092 77.5477 29.332 77.8117 29.636C78.0757 29.94 78.2797 30.288 78.4237 30.68C78.5757 31.064 78.6517 31.464 78.6517 31.88C78.6517 32.464 78.5317 33.004 78.2917 33.5C78.0597 33.988 77.7317 34.38 77.3077 34.676C76.8837 34.972 76.3877 35.12 75.8197 35.12ZM75.5917 34.4C75.9357 34.4 76.2437 34.332 76.5157 34.196C76.7877 34.052 77.0197 33.86 77.2117 33.62C77.4117 33.38 77.5637 33.112 77.6677 32.816C77.7717 32.512 77.8237 32.2 77.8237 31.88C77.8237 31.544 77.7637 31.224 77.6437 30.92C77.5317 30.616 77.3677 30.348 77.1517 30.116C76.9357 29.884 76.6877 29.7 76.4077 29.564C76.1277 29.428 75.8237 29.36 75.4957 29.36C75.2877 29.36 75.0717 29.4 74.8477 29.48C74.6237 29.56 74.4077 29.676 74.1997 29.828C73.9997 29.972 73.8317 30.136 73.6957 30.32C73.5597 30.504 73.4757 30.7 73.4437 30.908V32.828C73.5717 33.124 73.7437 33.392 73.9597 33.632C74.1757 33.864 74.4237 34.052 74.7037 34.196C74.9917 34.332 75.2877 34.4 75.5917 34.4ZM83.3699 33.2C83.3699 32.808 83.4819 32.472 83.7059 32.192C83.9299 31.904 84.2379 31.684 84.6299 31.532C85.0299 31.372 85.4899 31.292 86.0099 31.292C86.3139 31.292 86.6299 31.316 86.9579 31.364C87.2859 31.412 87.5779 31.484 87.8339 31.58V31.052C87.8339 30.524 87.6779 30.104 87.3659 29.792C87.0539 29.48 86.6219 29.324 86.0699 29.324C85.7339 29.324 85.4019 29.388 85.0739 29.516C84.7539 29.636 84.4179 29.816 84.0659 30.056L83.7539 29.48C84.1619 29.2 84.5619 28.992 84.9539 28.856C85.3459 28.712 85.7459 28.64 86.1539 28.64C86.9219 28.64 87.5299 28.86 87.9779 29.3C88.4259 29.74 88.6499 30.348 88.6499 31.124V34.016C88.6499 34.128 88.6739 34.212 88.7219 34.268C88.7699 34.316 88.8459 34.344 88.9499 34.352V35C88.8619 35.008 88.7859 35.016 88.7219 35.024C88.6579 35.032 88.6099 35.032 88.5779 35.024C88.3779 35.016 88.2259 34.952 88.1219 34.832C88.0179 34.712 87.9619 34.584 87.9539 34.448L87.9419 33.992C87.6619 34.352 87.2979 34.632 86.8499 34.832C86.4019 35.024 85.9459 35.12 85.4819 35.12C85.0819 35.12 84.7179 35.036 84.3899 34.868C84.0699 34.692 83.8179 34.46 83.6339 34.172C83.4579 33.876 83.3699 33.552 83.3699 33.2ZM87.5579 33.68C87.6459 33.568 87.7139 33.46 87.7619 33.356C87.8099 33.252 87.8339 33.16 87.8339 33.08V32.168C87.5619 32.064 87.2779 31.984 86.9819 31.928C86.6939 31.872 86.4019 31.844 86.1059 31.844C85.5219 31.844 85.0499 31.96 84.6899 32.192C84.3299 32.424 84.1499 32.74 84.1499 33.14C84.1499 33.372 84.2099 33.592 84.3299 33.8C84.4499 34 84.6259 34.168 84.8579 34.304C85.0899 34.432 85.3619 34.496 85.6739 34.496C86.0659 34.496 86.4299 34.42 86.7659 34.268C87.1099 34.116 87.3739 33.92 87.5579 33.68ZM97.121 35.12C96.113 35.12 95.349 34.812 94.829 34.196C94.317 33.572 94.061 32.712 94.061 31.616C94.061 30.84 94.125 30.184 94.253 29.648C94.381 29.112 94.569 28.672 94.817 28.328C95.065 27.976 95.369 27.688 95.729 27.464C96.097 27.24 96.517 27.056 96.989 26.912L99.617 26.048L99.689 26.756L97.157 27.584C96.677 27.744 96.277 27.948 95.957 28.196C95.637 28.444 95.385 28.76 95.201 29.144C95.025 29.52 94.909 30.012 94.853 30.62C95.061 30.156 95.381 29.8 95.813 29.552C96.245 29.296 96.745 29.168 97.313 29.168C97.921 29.168 98.437 29.292 98.861 29.54C99.293 29.788 99.621 30.132 99.845 30.572C100.069 31.012 100.181 31.52 100.181 32.096C100.181 32.704 100.061 33.236 99.821 33.692C99.589 34.14 99.245 34.492 98.789 34.748C98.341 34.996 97.785 35.12 97.121 35.12ZM97.121 34.4C97.833 34.4 98.381 34.196 98.765 33.788C99.157 33.372 99.353 32.82 99.353 32.132C99.353 31.46 99.161 30.912 98.777 30.488C98.401 30.064 97.849 29.852 97.121 29.852C96.705 29.852 96.329 29.94 95.993 30.116C95.657 30.292 95.389 30.548 95.189 30.884C94.997 31.22 94.901 31.636 94.901 32.132C94.901 32.564 94.985 32.952 95.153 33.296C95.329 33.64 95.581 33.912 95.909 34.112C96.237 34.304 96.641 34.4 97.121 34.4ZM108.058 35.12C107.61 35.12 107.194 35.036 106.81 34.868C106.434 34.692 106.106 34.456 105.826 34.16C105.554 33.856 105.342 33.512 105.19 33.128C105.038 32.736 104.962 32.324 104.962 31.892C104.962 31.444 105.038 31.028 105.19 30.644C105.342 30.252 105.558 29.908 105.838 29.612C106.118 29.308 106.446 29.072 106.822 28.904C107.206 28.728 107.622 28.64 108.07 28.64C108.518 28.64 108.93 28.728 109.306 28.904C109.682 29.072 110.01 29.308 110.29 29.612C110.57 29.908 110.786 30.252 110.938 30.644C111.09 31.028 111.166 31.444 111.166 31.892C111.166 32.324 111.09 32.736 110.938 33.128C110.786 33.512 110.57 33.856 110.29 34.16C110.018 34.456 109.69 34.692 109.306 34.868C108.93 35.036 108.514 35.12 108.058 35.12ZM105.79 31.904C105.79 32.368 105.89 32.792 106.09 33.176C106.298 33.552 106.574 33.852 106.918 34.076C107.262 34.292 107.642 34.4 108.058 34.4C108.474 34.4 108.854 34.288 109.198 34.064C109.542 33.84 109.818 33.536 110.026 33.152C110.234 32.76 110.338 32.336 110.338 31.88C110.338 31.416 110.234 30.992 110.026 30.608C109.818 30.224 109.542 29.92 109.198 29.696C108.854 29.472 108.474 29.36 108.058 29.36C107.642 29.36 107.262 29.476 106.918 29.708C106.582 29.94 106.31 30.248 106.102 30.632C105.894 31.008 105.79 31.432 105.79 31.904ZM117.93 35V29.48H115.698V28.748H120.978V29.48H118.746V35H117.93ZM129.505 35V32.384C129.249 32.504 128.981 32.596 128.701 32.66C128.421 32.716 128.121 32.744 127.801 32.744C127.113 32.744 126.593 32.568 126.241 32.216C125.897 31.864 125.725 31.324 125.725 30.596V28.748H126.541V30.488C126.541 31.048 126.653 31.456 126.877 31.712C127.109 31.968 127.477 32.096 127.981 32.096C128.261 32.096 128.541 32.064 128.821 32C129.101 31.936 129.329 31.852 129.505 31.748V28.748H130.321V35H129.505ZM135.945 35V28.76H136.761V33.896L140.565 28.748H141.297V35H140.481V29.948L136.737 35H135.945ZM146.91 35V28.748H147.726V31.424H148.662L150.762 28.748H151.698L149.31 31.784L151.998 35H151.038L148.662 32.18H147.726V35H146.91Z" fill="#9F9F9F"/>
<path d="M6.05 19C5.49 19 5.21 18.72 5.21 18.16V14.08L0.63 6.78C0.35 6.3 0.436667 5.90667 0.89 5.6C1.37 5.30667 1.75667 5.39333 2.05 5.86L6.05 12.28L10.25 5.86C10.39 5.64 10.56 5.51 10.76 5.47C10.96 5.42333 11.17 5.48 11.39 5.64C11.8767 5.94 11.9633 6.32 11.65 6.78L6.89 14.08V18.16C6.89 18.72 6.61 19 6.05 19ZM22.0192 8.86C22.5792 8.86 22.8592 9.14 22.8592 9.7V18.16C22.8592 18.72 22.5792 19 22.0192 19C21.4592 19 21.1792 18.72 21.1792 18.16V17.83C20.4726 18.61 19.4326 19 18.0592 19H17.4992C16.1726 19 15.1859 18.68 14.5392 18.04C13.8992 17.3933 13.5792 16.4067 13.5792 15.08V9.7C13.5792 9.14 13.8592 8.86 14.4192 8.86C14.9792 8.86 15.2592 9.14 15.2592 9.7V15.08C15.2592 15.9467 15.4159 16.5367 15.7292 16.85C16.0492 17.1633 16.6392 17.32 17.4992 17.32H18.0592C18.8592 17.32 19.5559 17.2267 20.1492 17.04C20.7492 16.8533 21.0926 16.5667 21.1792 16.18V9.7C21.1792 9.14 21.4592 8.86 22.0192 8.86ZM27.8614 19C27.3014 19 27.0214 18.72 27.0214 18.16V9.7C27.0214 9.14 27.3014 8.86 27.8614 8.86C28.4214 8.86 28.7014 9.14 28.7014 9.7V10.48C29.0947 9.94667 29.5947 9.54333 30.2014 9.27C30.8147 8.99667 31.5147 8.86 32.3014 8.86C32.8614 8.86 33.1414 9.14 33.1414 9.7C33.1414 10.26 32.8614 10.54 32.3014 10.54C31.1481 10.54 30.2681 10.7533 29.6614 11.18C29.0547 11.6067 28.7347 12.17 28.7014 12.87V18.16C28.7014 18.72 28.4214 19 27.8614 19ZM38.2366 23C37.2699 23 36.5466 22.7567 36.0666 22.27C35.5932 21.79 35.3566 21.0667 35.3566 20.1C35.3566 19.54 35.6366 19.26 36.1966 19.26C36.7566 19.26 37.0366 19.54 37.0366 20.1C37.0366 20.6 37.1099 20.9267 37.2566 21.08C37.4099 21.24 37.7366 21.32 38.2366 21.32H42.1166C42.6099 21.32 42.9332 21.24 43.0866 21.08C43.2399 20.9267 43.3166 20.6 43.3166 20.1V17.56C42.9166 18.16 42.4499 18.55 41.9166 18.73C41.3899 18.91 40.8166 19 40.1966 19H39.2166C37.8966 19 36.9232 18.6867 36.2966 18.06C35.6699 17.4333 35.3566 16.4667 35.3566 15.16V9.7C35.3566 9.14 35.6366 8.86 36.1966 8.86C36.7566 8.86 37.0366 9.14 37.0366 9.7V15.16C37.0366 16 37.1866 16.57 37.4866 16.87C37.7932 17.17 38.3699 17.32 39.2166 17.32H40.1966C41.2899 17.32 42.0832 17.1433 42.5766 16.79C43.0699 16.43 43.3166 15.8867 43.3166 15.16V9.7C43.3166 9.14 43.5966 8.86 44.1566 8.86C44.7166 8.86 44.9966 9.14 44.9966 9.7V20.1C44.9966 21.0667 44.7566 21.79 44.2766 22.27C43.7966 22.7567 43.0766 23 42.1166 23H38.2366ZM56.2794 19C55.7194 19 55.4394 18.72 55.4394 18.16V6.28C55.4394 5.72 55.7194 5.44 56.2794 5.44C56.8394 5.44 57.1194 5.72 57.1194 6.28V11.03L62.2194 5.76C62.606 5.34667 62.9994 5.34 63.3994 5.74C63.8127 6.12667 63.8194 6.52 63.4194 6.92L59.1694 11.31L64.1794 17.54C64.5194 17.9867 64.4794 18.38 64.0594 18.72C63.626 19.0733 63.2327 19.0333 62.8794 18.6L57.9894 12.54L57.1194 13.44V18.16C57.1194 18.72 56.8394 19 56.2794 19ZM69.907 19C68.787 19 67.9537 18.7267 67.407 18.18C66.8604 17.6333 66.587 16.8 66.587 15.68C66.587 14.56 66.857 13.7267 67.397 13.18C67.9437 12.6333 68.7804 12.36 69.907 12.36H74.137C74.097 11.66 73.9137 11.1833 73.587 10.93C73.2604 10.67 72.7004 10.54 71.907 10.54H70.747C70.0804 10.54 69.5837 10.5867 69.257 10.68C68.9304 10.7667 68.7004 10.9267 68.567 11.16C68.447 11.44 68.3237 11.6333 68.197 11.74C68.0704 11.8467 67.8804 11.9 67.627 11.9C67.347 11.9 67.127 11.8233 66.967 11.67C66.807 11.51 66.7604 11.3 66.827 11.04C67.027 10.2867 67.4437 9.73667 68.077 9.39C68.717 9.03667 69.607 8.86 70.747 8.86H71.907C73.2404 8.86 74.227 9.18 74.867 9.82C75.507 10.46 75.827 11.4467 75.827 12.78V18.16C75.827 18.72 75.547 19 74.987 19C74.427 19 74.147 18.72 74.147 18.16V17.71C73.4337 18.57 72.3937 19 71.027 19H69.907ZM69.907 17.32H71.027C71.5204 17.32 71.9837 17.2767 72.417 17.19C72.8504 17.0967 73.2204 16.93 73.527 16.69C73.8404 16.45 74.047 16.1067 74.147 15.66V14.04H69.907C69.247 14.04 68.807 14.15 68.587 14.37C68.3737 14.59 68.267 15.0267 68.267 15.68C68.267 16.34 68.3737 16.78 68.587 17C68.807 17.2133 69.247 17.32 69.907 17.32ZM83.5595 18.38C83.4729 18.5867 83.3495 18.7433 83.1895 18.85C83.0362 18.95 82.8395 19 82.5995 19C82.1795 19 81.8795 18.78 81.6995 18.34L78.2995 10.06C78.0662 9.52667 78.2129 9.16 78.7395 8.96C79.2395 8.72667 79.6062 8.87333 79.8395 9.4L83.0195 17.16H82.2395L85.7195 9.36C85.8329 9.14 85.9862 8.99 86.1795 8.91C86.3795 8.83 86.5995 8.84667 86.8395 8.96C87.3329 9.19333 87.4662 9.56667 87.2395 10.08L83.5595 18.38ZM93.0516 19C91.9316 19 91.0982 18.7267 90.5516 18.18C90.0049 17.6333 89.7316 16.8 89.7316 15.68C89.7316 14.56 90.0016 13.7267 90.5416 13.18C91.0882 12.6333 91.9249 12.36 93.0516 12.36H97.2816C97.2416 11.66 97.0582 11.1833 96.7316 10.93C96.4049 10.67 95.8449 10.54 95.0516 10.54H93.8916C93.2249 10.54 92.7282 10.5867 92.4016 10.68C92.0749 10.7667 91.8449 10.9267 91.7116 11.16C91.5916 11.44 91.4682 11.6333 91.3416 11.74C91.2149 11.8467 91.0249 11.9 90.7716 11.9C90.4916 11.9 90.2716 11.8233 90.1116 11.67C89.9516 11.51 89.9049 11.3 89.9716 11.04C90.1716 10.2867 90.5882 9.73667 91.2216 9.39C91.8616 9.03667 92.7516 8.86 93.8916 8.86H95.0516C96.3849 8.86 97.3716 9.18 98.0116 9.82C98.6516 10.46 98.9716 11.4467 98.9716 12.78V18.16C98.9716 18.72 98.6916 19 98.1316 19C97.5716 19 97.2916 18.72 97.2916 18.16V17.71C96.5782 18.57 95.5382 19 94.1716 19H93.0516ZM93.0516 17.32H94.1716C94.6649 17.32 95.1282 17.2767 95.5616 17.19C95.9949 17.0967 96.3649 16.93 96.6716 16.69C96.9849 16.45 97.1916 16.1067 97.2916 15.66V14.04H93.0516C92.3916 14.04 91.9516 14.15 91.7316 14.37C91.5182 14.59 91.4116 15.0267 91.4116 15.68C91.4116 16.34 91.5182 16.78 91.7316 17C91.9516 17.2133 92.3916 17.32 93.0516 17.32ZM105.959 19C104.939 19 104.179 18.75 103.679 18.25C103.186 17.7433 102.939 16.98 102.939 15.96V5.76C102.939 5.2 103.219 4.92 103.779 4.92C104.339 4.92 104.619 5.2 104.619 5.76V15.96C104.619 16.5 104.706 16.8633 104.879 17.05C105.059 17.23 105.419 17.32 105.959 17.32C106.533 17.32 106.819 17.6 106.819 18.16C106.839 18.72 106.553 19 105.959 19ZM110.604 14.62V15.1C110.604 15.96 110.761 16.5467 111.074 16.86C111.388 17.1667 111.978 17.32 112.844 17.32H114.484C115.164 17.32 115.668 17.2567 115.994 17.13C116.321 17.0033 116.538 16.78 116.644 16.46C116.718 16.2067 116.818 16.0133 116.944 15.88C117.078 15.7467 117.278 15.68 117.544 15.68C117.824 15.68 118.038 15.7533 118.184 15.9C118.331 16.0467 118.378 16.26 118.324 16.54C118.178 17.3667 117.784 17.9833 117.144 18.39C116.504 18.7967 115.618 19 114.484 19H112.844C111.518 19 110.531 18.68 109.884 18.04C109.244 17.4 108.924 16.42 108.924 15.1V12.78C108.924 11.4267 109.244 10.4333 109.884 9.8C110.531 9.16 111.518 8.84667 112.844 8.86H114.484C115.818 8.86 116.804 9.18 117.444 9.82C118.084 10.4533 118.404 11.44 118.404 12.78V13.78C118.404 14.34 118.124 14.62 117.564 14.62H110.604ZM112.844 10.54C111.978 10.5267 111.388 10.6767 111.074 10.99C110.761 11.3033 110.604 11.9 110.604 12.78V12.94H116.724V12.78C116.724 11.9067 116.568 11.3167 116.254 11.01C115.948 10.6967 115.358 10.54 114.484 10.54H112.844ZM122.92 19C122.36 19 122.08 18.72 122.08 18.16V9.7C122.08 9.14 122.36 8.86 122.92 8.86C123.48 8.86 123.76 9.14 123.76 9.7V10.03C124.467 9.25 125.507 8.86 126.88 8.86H127.44C128.773 8.86 129.76 9.18 130.4 9.82C131.04 10.46 131.36 11.4467 131.36 12.78V18.16C131.36 18.72 131.08 19 130.52 19C129.96 19 129.68 18.72 129.68 18.16V12.78C129.68 11.9067 129.52 11.3167 129.2 11.01C128.887 10.6967 128.3 10.54 127.44 10.54H126.88C126.08 10.54 125.383 10.6333 124.79 10.82C124.197 11 123.853 11.2867 123.76 11.68V18.16C123.76 18.72 123.48 19 122.92 19ZM136.162 19C135.602 19 135.322 18.72 135.322 18.16V5.76C135.322 5.2 135.602 4.92 136.162 4.92C136.722 4.92 137.002 5.2 137.002 5.76V13.27L141.762 9.18C142.189 8.81333 142.582 8.84 142.942 9.26C143.309 9.68667 143.282 10.08 142.862 10.44L139.212 13.59L142.702 17.56C143.076 17.9933 143.056 18.3867 142.642 18.74C142.216 19.1067 141.816 19.08 141.442 18.66L137.932 14.7L137.002 15.5V18.16C137.002 18.72 136.722 19 136.162 19ZM148.598 19C147.478 19 146.645 18.7267 146.098 18.18C145.552 17.6333 145.278 16.8 145.278 15.68C145.278 14.56 145.548 13.7267 146.088 13.18C146.635 12.6333 147.472 12.36 148.598 12.36H152.828C152.788 11.66 152.605 11.1833 152.278 10.93C151.952 10.67 151.392 10.54 150.598 10.54H149.438C148.772 10.54 148.275 10.5867 147.948 10.68C147.622 10.7667 147.392 10.9267 147.258 11.16C147.138 11.44 147.015 11.6333 146.888 11.74C146.762 11.8467 146.572 11.9 146.318 11.9C146.038 11.9 145.818 11.8233 145.658 11.67C145.498 11.51 145.452 11.3 145.518 11.04C145.718 10.2867 146.135 9.73667 146.768 9.39C147.408 9.03667 148.298 8.86 149.438 8.86H150.598C151.932 8.86 152.918 9.18 153.558 9.82C154.198 10.46 154.518 11.4467 154.518 12.78V18.16C154.518 18.72 154.238 19 153.678 19C153.118 19 152.838 18.72 152.838 18.16V17.71C152.125 18.57 151.085 19 149.718 19H148.598ZM148.598 17.32H149.718C150.212 17.32 150.675 17.2767 151.108 17.19C151.542 17.0967 151.912 16.93 152.218 16.69C152.532 16.45 152.738 16.1067 152.838 15.66V14.04H148.598C147.938 14.04 147.498 14.15 147.278 14.37C147.065 14.59 146.958 15.0267 146.958 15.68C146.958 16.34 147.065 16.78 147.278 17C147.498 17.2133 147.938 17.32 148.598 17.32Z" fill="white"/>
</svg>
